<svg width="925" height="866" viewBox="0 0 925 866" fill="none" xmlns="http://www.w3.org/2000/svg">
<g clip-path="url(#clip0_13_177)">
<rect width="925" height="866" fill="url(#paint0_linear_13_177)"/>
<g filter="url(#filter0_f_13_177)">
<path d="M815 438.755C815 567.854 439.002 773 246.929 773C54.856 773 119.443 567.854 119.443 438.755C119.443 309.656 275.149 205 467.221 205C659.294 205 815 309.656 815 438.755Z" fill="#635985"/>
<path d="M467.222 205.5C563.172 205.5 650.017 231.641 712.859 273.88C775.705 316.121 814.5 374.423 814.5 438.755C814.5 470.812 791.136 507.714 752.899 545.087C714.689 582.435 661.725 620.157 602.744 653.855C484.764 721.263 342.837 772.5 246.929 772.5C199 772.5 167.168 759.705 146.334 738.578C125.49 717.441 115.58 687.89 111.655 654.231C107.73 620.573 109.797 582.871 112.851 545.485C115.903 508.12 119.942 471.057 119.942 438.755C119.942 374.423 158.738 316.121 221.584 273.88C284.426 231.641 371.271 205.5 467.222 205.5Z" stroke="black"/>
</g>
<g opacity="0.35" filter="url(#filter1_f_13_177)">
<ellipse cx="846.5" cy="127.5" rx="384.5" ry="476.5" fill="#F2A07B"/>
</g>
<path fill-rule="evenodd" clip-rule="evenodd" d="M823.89 111.091L819.773 118.573L811.106 114.589L819.499 119.121L815.994 126.909L820.111 119.427L828.777 123.411L820.385 118.879L823.89 111.091ZM819.424 117.696L827.628 102.788L828.279 103.114L821.296 118.63L838.017 127.66L837.726 128.242L820.459 120.304L812.256 135.212L811.604 134.886L818.588 119.37L801.866 110.34L802.157 109.758L819.424 117.696Z" fill="white"/>
<rect x="231.155" y="33" width="121.062" height="312.311" transform="rotate(30 231.155 33)" fill="url(#paint1_linear_13_177)"/>
<rect x="794.156" y="428" width="121.062" height="312.311" transform="rotate(30 794.156 428)" fill="url(#paint2_linear_13_177)"/>
</g>
<defs>
<filter id="filter0_f_13_177" x="-391" y="-295" width="1706" height="1568" filterUnits="userSpaceOnUse" color-interpolation-filters="sRGB">
<feFlood flood-opacity="0" result="BackgroundImageFix"/>
<feBlend mode="normal" in="SourceGraphic" in2="BackgroundImageFix" result="shape"/>
<feGaussianBlur stdDeviation="250" result="effect1_foregroundBlur_13_177"/>
</filter>
<filter id="filter1_f_13_177" x="-38" y="-849" width="1769" height="1953" filterUnits="userSpaceOnUse" color-interpolation-filters="sRGB">
<feFlood flood-opacity="0" result="BackgroundImageFix"/>
<feBlend mode="normal" in="SourceGraphic" in2="BackgroundImageFix" result="shape"/>
<feGaussianBlur stdDeviation="250" result="effect1_foregroundBlur_13_177"/>
</filter>
<linearGradient id="paint0_linear_13_177" x1="462.5" y1="0" x2="462.5" y2="866" gradientUnits="userSpaceOnUse">
<stop stop-color="#FFFADC"/>
<stop offset="1" stop-color="white"/>
</linearGradient>
<linearGradient id="paint1_linear_13_177" x1="291.686" y1="33" x2="291.686" y2="345.311" gradientUnits="userSpaceOnUse">
<stop stop-color="white" stop-opacity="0"/>
<stop offset="0.5" stop-color="white" stop-opacity="0.5"/>
<stop offset="1" stop-color="white" stop-opacity="0"/>
</linearGradient>
<linearGradient id="paint2_linear_13_177" x1="854.686" y1="428" x2="854.686" y2="740.311" gradientUnits="userSpaceOnUse">
<stop stop-color="white" stop-opacity="0"/>
<stop offset="0.5" stop-color="white" stop-opacity="0.5"/>
<stop offset="1" stop-color="white" stop-opacity="0"/>
</linearGradient>
<clipPath id="clip0_13_177">
<rect width="925" height="866" fill="white"/>
</clipPath>
</defs>
</svg>
