<svg width="925" height="1209" viewBox="0 0 925 1209" fill="none" xmlns="http://www.w3.org/2000/svg">
<g clip-path="url(#clip0_30_4)">
<rect width="925" height="1209" fill="url(#paint0_linear_30_4)"/>
<g filter="url(#filter0_f_30_4)">
<path d="M342 617.594C342 790.787 -116.547 1066 -350.789 1066C-585.031 1066 -506.265 790.787 -506.265 617.594C-506.265 444.401 -316.374 304 -82.1322 304C152.11 304 342 444.401 342 617.594Z" fill="#635985"/>
<path d="M-82.1318 304.5C34.8929 304.5 140.819 339.573 217.478 396.252C294.136 452.931 341.5 531.193 341.5 617.594C341.5 660.693 312.956 710.247 266.326 760.383C219.716 810.498 155.114 861.11 83.1797 906.321C11.2476 951.531 -68.0005 991.33 -143.896 1019.82C-219.798 1048.32 -292.314 1065.5 -350.789 1065.5C-409.246 1065.5 -448.093 1048.33 -473.531 1019.96C-498.985 991.564 -511.081 951.872 -515.87 906.691C-520.659 861.514 -518.137 810.915 -514.413 760.76C-510.69 710.623 -505.765 660.916 -505.765 617.594C-505.765 531.193 -458.4 452.931 -381.742 396.252C-305.084 339.572 -199.157 304.5 -82.1318 304.5Z" stroke="black"/>
</g>
<g opacity="0.35" filter="url(#filter1_f_30_4)">
<ellipse cx="846.5" cy="127.5" rx="384.5" ry="476.5" fill="#F2A07B"/>
</g>
<rect x="651.156" y="76" width="121.062" height="312.311" transform="rotate(30 651.156 76)" fill="url(#paint1_linear_30_4)"/>
<rect x="247.839" y="31" width="146.272" height="401.678" transform="rotate(30 247.839 31)" fill="url(#paint2_linear_30_4)"/>
<rect x="794.389" y="335" width="143.412" height="488.778" transform="rotate(30 794.389 335)" fill="url(#paint3_linear_30_4)"/>
<g opacity="0.5" clip-path="url(#clip1_30_4)">
<path d="M851.741 257.416C845.573 265.905 833.691 267.787 825.201 261.619C816.712 255.452 814.83 243.569 820.998 235.08C827.166 226.591 839.048 224.709 847.537 230.877C856.027 237.045 857.909 248.927 851.741 257.416ZM850.527 256.534C856.208 248.715 854.475 237.771 846.656 232.09C838.836 226.41 827.892 228.143 822.212 235.962C816.531 243.781 818.264 254.725 826.083 260.406C833.902 266.087 844.846 264.353 850.527 256.534ZM844.46 252.126C842.832 254.367 840.447 255.732 837.911 256.128C838.095 256.59 838.045 257.133 837.732 257.565C837.245 258.235 836.307 258.383 835.637 257.897C835.082 257.493 834.887 256.782 835.111 256.169C833.494 255.965 831.903 255.364 830.491 254.338C826.024 251.092 825.033 244.838 828.279 240.37C831.525 235.902 837.779 234.912 842.247 238.158C846.715 241.404 847.706 247.658 844.46 252.126ZM843.246 251.244C846.005 247.446 845.163 242.131 841.366 239.371C837.568 236.612 832.252 237.454 829.493 241.252C826.733 245.05 827.576 250.365 831.373 253.125C835.171 255.884 840.487 255.042 843.246 251.244ZM840.07 248.319C840.033 248.674 839.809 248.982 839.482 249.128L836.426 250.489C836.1 250.634 835.721 250.594 835.432 250.385L832.725 248.418L832.624 248.333C832.401 248.121 832.286 247.815 832.318 247.504L832.669 244.177L832.691 244.047C832.764 243.748 832.971 243.496 833.257 243.368L836.312 242.007C836.598 241.88 836.924 241.895 837.195 242.041L837.307 242.112L840.014 244.078C840.302 244.288 840.458 244.637 840.42 244.992L840.07 248.319ZM838.898 245.122L836.66 243.496L834.13 244.621L833.841 247.375L836.08 249.001L838.609 247.875L838.898 245.122ZM858.969 247.717L861.514 244.213L863.275 248.169L858.969 247.717ZM857.491 279.706C857.517 279.873 857.421 280.031 857.269 280.087L857.201 280.105L852.952 280.778C852.762 280.808 852.583 280.678 852.553 280.488L851.879 276.239L851.875 276.168C851.881 276.029 851.97 275.906 852.101 275.858L852.169 275.84L856.419 275.167L856.49 275.163C856.651 275.17 856.792 275.291 856.818 275.457L857.491 279.706ZM855.516 276.828L853.541 277.142L853.854 279.117L855.829 278.804L855.516 276.828Z" fill="white"/>
</g>
<g opacity="0.5" clip-path="url(#clip2_30_4)">
<path fill-rule="evenodd" clip-rule="evenodd" d="M40.2432 907.243C39.2767 907.243 38.4932 908.026 38.4932 908.993L38.4932 911.541C37.5911 911.83 36.7281 912.207 35.914 912.661L34.3448 911.091C33.6614 910.408 32.5533 910.408 31.8699 911.091L28.2557 914.706C27.5723 915.389 27.5723 916.497 28.2557 917.181L29.9903 918.915C29.6661 919.58 29.3918 920.274 29.1722 920.992L26.4813 920.992C25.5148 920.992 24.7313 921.775 24.7313 922.742L24.7313 927.853C24.7313 928.82 25.5148 929.603 26.4813 929.603L29.2403 929.603C29.4221 930.165 29.6378 930.712 29.8847 931.242L27.9315 933.195C27.248 933.879 27.248 934.987 27.9315 935.67L31.5457 939.284C32.2291 939.968 33.3372 939.968 34.0206 939.284L35.7055 937.599C36.5803 938.106 37.5138 938.523 38.4934 938.838L38.4934 941.007C38.4934 941.974 39.2769 942.757 40.2434 942.757L43.3046 942.757L43.3046 930.38L42.5952 930.342C39.878 930.194 37.7196 927.944 37.7196 925.189C37.7196 922.435 39.878 920.184 42.5952 920.037L43.3046 919.998L43.3046 907.243L40.2432 907.243ZM39.9932 908.993C39.9932 908.855 40.1051 908.743 40.2432 908.743L41.8046 908.743L41.8046 918.615C38.6372 919.13 36.2196 921.877 36.2196 925.189C36.2196 928.502 38.6372 931.249 41.8046 931.763L41.8046 941.257L40.2434 941.257C40.1053 941.257 39.9934 941.145 39.9934 941.007L39.9934 937.709L39.4437 937.557C38.2095 937.215 37.0498 936.692 35.9946 936.02L35.4869 935.697L32.9599 938.224C32.8623 938.321 32.704 938.321 32.6064 938.224L28.9921 934.609C28.8945 934.512 28.8945 934.353 28.9921 934.256L31.7112 931.537L31.461 931.05C31.0706 930.291 30.7538 929.488 30.5198 928.651L30.3666 928.103L26.4813 928.103C26.3433 928.103 26.2313 927.991 26.2313 927.853L26.2313 922.742C26.2313 922.604 26.3433 922.492 26.4813 922.492L30.318 922.492L30.4645 921.932C30.7226 920.945 31.0952 920.005 31.5674 919.126L31.8312 918.635L29.3163 916.12C29.2187 916.022 29.2187 915.864 29.3163 915.766L32.9306 912.152C33.0282 912.055 33.1865 912.055 33.2841 912.152L35.6806 914.549L36.1847 914.24C37.1885 913.624 38.2831 913.144 39.4436 912.822L39.9932 912.669L39.9932 908.993Z" fill="white"/>
<path fill-rule="evenodd" clip-rule="evenodd" d="M43.2396 929.034C43.1212 929.045 43.0012 929.051 42.8798 929.051C40.7472 929.051 39.0184 927.322 39.0184 925.189C39.0184 923.057 40.7472 921.328 42.8798 921.328C43.0011 921.328 43.1211 921.333 43.2395 921.344L47.2398 912.18C47.3591 911.907 47.6289 911.73 47.9271 911.73L51.0036 911.73C51.2346 910.445 52.3584 909.47 53.7101 909.47C55.2289 909.47 56.4601 910.701 56.4601 912.22C56.4601 913.739 55.2289 914.97 53.7101 914.97C52.548 914.97 51.5542 914.249 51.1516 913.23L48.4181 913.23L44.6877 921.776C45.0558 921.972 45.3885 922.225 45.6738 922.524L49.432 918.246C49.5744 918.084 49.7797 917.991 49.9955 917.991L53.2847 917.991C53.5652 916.77 54.6587 915.86 55.965 915.86C57.4837 915.86 58.715 917.091 58.715 918.61C58.715 920.128 57.4837 921.36 55.965 921.36C54.7546 921.36 53.7269 920.578 53.3594 919.491L50.3349 919.491L46.6509 923.684C46.6033 923.739 46.5497 923.784 46.4919 923.821C46.5672 924.02 46.6266 924.226 46.6684 924.439L55.8258 924.439C56.0847 923.189 57.192 922.25 58.5187 922.25C60.0375 922.25 61.2687 923.481 61.2687 925C61.2687 926.519 60.0375 927.75 58.5187 927.75C57.3298 927.75 56.3172 926.995 55.9333 925.939L46.6685 925.939C46.6403 926.082 46.6042 926.223 46.5607 926.36C46.5925 926.386 46.6227 926.415 46.6507 926.446L50.3346 930.639L53.3185 930.639C53.6449 929.485 54.7062 928.639 55.965 928.639C57.4837 928.639 58.715 929.871 58.715 931.389C58.715 932.908 57.4837 934.139 55.965 934.139C54.7062 934.139 53.6449 933.294 53.3185 932.139L49.9952 932.139C49.7795 932.139 49.5742 932.047 49.4318 931.884L45.7847 927.733C45.4761 928.085 45.1046 928.381 44.6877 928.602L48.4181 937.148L51.0329 937.148C51.3182 935.934 52.4086 935.03 53.7101 935.03C55.2289 935.03 56.4601 936.261 56.4601 937.78C56.4601 939.298 55.2289 940.53 53.7101 940.53C52.4948 940.53 51.4637 939.741 51.1001 938.648L47.9271 938.648C47.6289 938.648 47.3591 938.472 47.2398 938.198L43.2396 929.034ZM45.2413 925.189C45.2413 926.493 44.184 927.551 42.8798 927.551C41.5757 927.551 40.5184 926.493 40.5184 925.189C40.5184 923.885 41.5757 922.828 42.8798 922.828C44.184 922.828 45.2413 923.885 45.2413 925.189ZM59.7687 925C59.7687 925.69 59.209 926.25 58.5187 926.25C57.8283 926.25 57.2687 925.69 57.2687 925C57.2687 924.309 57.8283 923.75 58.5187 923.75C59.209 923.75 59.7687 924.309 59.7687 925ZM55.965 919.86C56.6553 919.86 57.215 919.3 57.215 918.61C57.215 917.919 56.6553 917.36 55.965 917.36C55.2746 917.36 54.715 917.919 54.715 918.61C54.715 919.3 55.2746 919.86 55.965 919.86ZM54.9601 912.22C54.9601 912.91 54.4004 913.47 53.7101 913.47C53.0197 913.47 52.4601 912.91 52.4601 912.22C52.4601 911.53 53.0197 910.97 53.7101 910.97C54.4004 910.97 54.9601 911.53 54.9601 912.22ZM53.7101 939.03C54.4004 939.03 54.9601 938.47 54.9601 937.78C54.9601 937.089 54.4004 936.53 53.7101 936.53C53.0197 936.53 52.4601 937.089 52.4601 937.78C52.4601 938.47 53.0197 939.03 53.7101 939.03ZM57.215 931.389C57.215 932.08 56.6553 932.639 55.965 932.639C55.2746 932.639 54.715 932.08 54.715 931.389C54.715 930.699 55.2746 930.139 55.965 930.139C56.6553 930.139 57.215 930.699 57.215 931.389Z" fill="white"/>
</g>
<g opacity="0.5">
<path fill-rule="evenodd" clip-rule="evenodd" d="M96.3233 780.16C94.4787 780.16 92.9834 781.655 92.9834 783.5C92.9834 785.344 94.4787 786.84 96.3233 786.84C98.1678 786.84 99.6631 785.344 99.6631 783.5C99.6631 781.655 98.1678 780.16 96.3233 780.16ZM94.4834 783.5C94.4834 782.484 95.3072 781.66 96.3233 781.66C97.3394 781.66 98.1631 782.484 98.1631 783.5C98.1631 784.516 97.3394 785.34 96.3233 785.34C95.3072 785.34 94.4834 784.516 94.4834 783.5Z" fill="white"/>
<path fill-rule="evenodd" clip-rule="evenodd" d="M94.7161 773.75C94.3227 773.75 93.9961 774.054 93.968 774.446L93.8267 776.426C93.4643 776.554 93.1147 776.708 92.7804 776.888L91.3559 775.622C91.0591 775.358 90.6081 775.371 90.3273 775.652L88.4752 777.504C88.1944 777.785 88.1811 778.236 88.445 778.533L89.7113 779.957C89.5318 780.291 89.3769 780.641 89.2491 781.003L87.2698 781.145C86.8774 781.173 86.5733 781.499 86.5733 781.893V785.107C86.5733 785.5 86.8774 785.827 87.2698 785.855L89.2491 785.996C89.3619 786.316 89.4957 786.626 89.6488 786.924L88.4451 788.278C88.1813 788.575 88.1945 789.026 88.4753 789.307L90.3274 791.159C90.6082 791.439 91.0592 791.453 91.356 791.189L92.6489 790.04C93.0227 790.25 93.4165 790.429 93.8267 790.574L93.968 792.553C93.9961 792.946 94.3227 793.25 94.7161 793.25H97.9304C98.3239 793.25 98.6505 792.946 98.6785 792.553L98.8199 790.574C99.1876 790.444 99.542 790.287 99.8807 790.104L101.101 791.189C101.398 791.453 101.849 791.44 102.13 791.159L103.982 789.307C104.263 789.026 104.276 788.575 104.012 788.278L102.927 787.057C103.11 786.719 103.268 786.364 103.397 785.996L105.377 785.855C105.769 785.827 106.073 785.501 106.073 785.107V781.893C106.073 781.499 105.769 781.173 105.377 781.145L103.397 781.003C103.253 780.593 103.073 780.199 102.863 779.826L104.012 778.532C104.276 778.236 104.263 777.785 103.982 777.504L102.13 775.652C101.849 775.371 101.398 775.358 101.101 775.622L99.7471 776.825C99.4491 776.672 99.1395 776.538 98.8199 776.426L98.6785 774.446C98.6505 774.054 98.3239 773.75 97.9304 773.75H94.7161ZM95.2865 777.042L95.4145 775.25H97.2321L97.3601 777.042C97.3828 777.359 97.6033 777.628 97.9103 777.712C98.4602 777.862 98.9788 778.089 99.4541 778.38C99.7358 778.553 100.097 778.521 100.344 778.301L101.569 777.212L102.421 778.064L101.372 779.245C101.145 779.501 101.119 779.878 101.31 780.161C101.666 780.692 101.939 781.282 102.111 781.913C102.195 782.22 102.464 782.44 102.781 782.463L104.573 782.591V784.409L102.781 784.537C102.464 784.559 102.195 784.78 102.111 785.087C101.949 785.68 101.698 786.237 101.373 786.742C101.191 787.025 101.22 787.394 101.443 787.646L102.421 788.746L101.569 789.598L100.469 788.62C100.218 788.396 99.8479 788.368 99.5649 788.55C99.0599 788.875 98.5033 789.126 97.9103 789.288C97.6033 789.372 97.3828 789.64 97.3601 789.958L97.2321 791.75H95.4145L95.2865 789.958C95.2638 789.64 95.0432 789.372 94.7362 789.288C94.1052 789.115 93.5153 788.842 92.9848 788.486C92.7009 788.296 92.3242 788.321 92.0686 788.548L90.888 789.598L90.036 788.746L91.1249 787.521C91.3444 787.274 91.3764 786.912 91.2037 786.631C90.9124 786.155 90.6856 785.637 90.5352 785.087C90.4513 784.78 90.1827 784.559 89.8652 784.537L88.0733 784.409V782.591L89.8652 782.463C90.1827 782.44 90.4513 782.22 90.5352 781.913C90.6961 781.325 90.9444 780.772 91.2655 780.27C91.4466 779.988 91.4175 779.619 91.1944 779.368L90.0359 778.065L90.8879 777.213L92.1911 778.371C92.4421 778.594 92.8109 778.623 93.0937 778.442C93.5956 778.121 94.148 777.873 94.7362 777.712C95.0432 777.628 95.2638 777.359 95.2865 777.042Z" fill="white"/>
<path d="M79.5112 776.747C81.3114 775.191 83.3755 774.392 85.0034 774.09L85.0022 774.091C85.0479 774.082 85.0951 774.078 85.1434 774.078C85.5576 774.078 85.8934 774.414 85.8934 774.828C85.8934 775.214 85.6013 775.532 85.2258 775.573L85.226 775.574C83.8398 775.84 82.0507 776.534 80.4922 777.882C78.6954 779.435 77.1744 781.88 76.946 785.635C76.9202 786.059 76.8065 786.493 76.5849 786.885L73.4593 792.414C73.3922 792.533 73.4325 792.683 73.5499 792.752L76.8807 794.717L77.5989 801.493C77.7202 802.637 78.6855 803.505 79.8364 803.505H83.9857V807.5C83.9857 807.914 83.6499 808.25 83.2357 808.25C82.8215 808.25 82.4857 807.914 82.4857 807.5V805.005H79.8364C77.9183 805.005 76.3094 803.558 76.1073 801.651L75.4686 795.625L72.788 794.044C71.9662 793.56 71.684 792.506 72.1535 791.676L75.279 786.147C75.3763 785.974 75.4352 785.767 75.4488 785.544C75.702 781.382 77.4117 778.562 79.5112 776.747Z" fill="white"/>
<path d="M96.6078 805.691C96.6078 802.633 96.9058 799.578 97.6027 796.603L97.6124 796.604C97.6436 796.219 97.9664 795.916 98.36 795.916C98.7742 795.916 99.11 796.251 99.11 796.666C99.11 796.743 99.0984 796.817 99.0769 796.887C98.4006 799.751 98.1078 802.708 98.1078 805.691V807.5C98.1078 807.914 97.772 808.25 97.3578 808.25C96.9435 808.25 96.6078 807.914 96.6078 807.5V805.691Z" fill="white"/>
</g>
<g opacity="0.5">
<path d="M43.4319 620.537C43.7526 620.274 44.2254 620.321 44.4875 620.642C44.7493 620.963 44.7015 621.435 44.3811 621.697C43.1254 622.723 41.5839 625.326 42.5432 629.329C46.607 630.012 49.0979 628.294 50.0354 626.969C50.2747 626.631 50.7423 626.551 51.0803 626.79C51.4184 627.03 51.4982 627.497 51.259 627.835C50.0355 629.564 47.2211 631.37 43.0315 630.911C43.1156 631.135 43.2063 631.363 43.3059 631.594C44.6411 634.695 43.7448 637.702 41.7688 639.708C39.8073 641.699 36.7585 642.734 33.718 641.956C33.4977 641.9 33.2822 641.843 33.0706 641.788C33.1906 642.163 33.3033 642.525 33.4036 642.874C33.7712 644.156 34.0152 645.352 33.9563 646.446C33.8956 647.572 33.5144 648.583 32.6741 649.46C31.8557 650.315 30.6418 651.001 28.9934 651.59C28.6035 651.729 28.1739 651.526 28.0344 651.136C27.8951 650.746 28.0985 650.317 28.4885 650.177C30.0313 649.626 30.9995 649.039 31.5901 648.422C32.1583 647.829 32.4149 647.17 32.4583 646.365C32.5033 645.527 32.3169 644.528 31.9612 643.288C31.7862 642.678 31.5768 642.032 31.345 641.338C30.6351 641.155 29.9753 640.99 29.3538 640.858C28.0922 640.589 27.0825 640.473 26.2502 640.576C25.4502 640.675 24.8096 640.976 24.2571 641.584C23.683 642.216 23.1647 643.223 22.7219 644.8C22.6098 645.199 22.1958 645.431 21.7971 645.319C21.3985 645.207 21.1659 644.794 21.2776 644.395C21.7507 642.71 22.3512 641.451 23.1467 640.576C23.964 639.676 24.9459 639.226 26.0657 639.087C27.1531 638.953 28.3623 639.113 29.6663 639.391C30.0225 639.467 30.3931 639.554 30.7766 639.648C30.7066 639.44 30.6346 639.227 30.5627 639.01C29.5763 636.031 30.3981 632.918 32.2483 630.824C34.1126 628.713 37.0511 627.611 40.2366 628.728C40.4725 628.811 40.7051 628.884 40.9329 628.952C40.1868 624.807 41.7931 621.876 43.4319 620.537ZM57.4426 644.524C58.1648 644.524 58.7502 645.109 58.7502 645.831C58.7502 646.554 58.1648 647.139 57.4426 647.139C56.7206 647.139 56.135 646.554 56.135 645.831C56.1351 645.109 56.7206 644.524 57.4426 644.524ZM26.426 643.095C26.7086 642.792 27.1837 642.775 27.4866 643.058L30.1956 645.585C30.4984 645.868 30.5143 646.343 30.2317 646.646C29.9492 646.948 29.4749 646.965 29.1721 646.683L26.4631 644.155C26.1604 643.872 26.1436 643.398 26.426 643.095ZM54.2854 645.081C54.6994 645.082 55.0353 645.417 55.0354 645.831C55.0354 646.246 54.6994 646.581 54.2854 646.581H37.2542C36.8402 646.581 36.5042 646.246 36.5042 645.831C36.5042 645.417 36.8402 645.082 37.2542 645.081H54.2854ZM39.7395 630.144C37.1951 629.252 34.8804 630.11 33.3723 631.817C31.8505 633.54 31.1805 636.101 31.9875 638.538C32.1641 639.072 32.3397 639.59 32.509 640.091C33.0195 640.225 33.5473 640.364 34.0901 640.503C36.5773 641.14 39.0861 640.294 40.6995 638.657C42.2981 637.034 42.9945 634.664 41.928 632.188C41.6959 631.649 41.5022 631.125 41.343 630.616C40.826 630.492 40.2911 630.337 39.7395 630.144ZM32.5247 634.145C32.8072 633.842 33.2823 633.826 33.5852 634.109L38.4016 638.602C38.7042 638.885 38.7202 639.359 38.4377 639.662C38.1552 639.964 37.681 639.981 37.3782 639.699L32.5618 635.205C32.2589 634.923 32.2421 634.448 32.5247 634.145ZM35.3323 631.136C35.6148 630.833 36.089 630.817 36.3918 631.099L41.2083 635.592C41.5111 635.875 41.5279 636.35 41.2454 636.653C40.9628 636.956 40.4876 636.971 40.1848 636.689L35.3694 632.196C35.0666 631.913 35.0499 631.439 35.3323 631.136ZM57.4426 634.026C58.1648 634.026 58.7502 634.611 58.7502 635.333C58.75 636.055 58.1647 636.641 57.4426 636.641C56.7207 636.641 56.1352 636.055 56.135 635.333C56.135 634.611 56.7206 634.026 57.4426 634.026ZM54.2854 634.583C54.6995 634.584 55.0354 634.919 55.0354 635.333C55.0352 635.747 54.6993 636.083 54.2854 636.083H47.3079C46.8938 636.083 46.5581 635.747 46.5579 635.333C46.5579 634.919 46.8936 634.583 47.3079 634.583H54.2854ZM43.5598 624.734C43.8423 624.431 44.3165 624.414 44.6194 624.697L47.3293 627.224C47.6322 627.507 47.648 627.982 47.3655 628.285C47.0829 628.587 46.6087 628.603 46.3059 628.321L43.5969 625.793C43.2941 625.511 43.2773 625.037 43.5598 624.734Z" fill="white"/>
</g>
<path opacity="0.5" fill-rule="evenodd" clip-rule="evenodd" d="M823.89 111.091L819.773 118.573L811.106 114.589L819.499 119.121L815.994 126.909L820.111 119.427L828.777 123.411L820.385 118.879L823.89 111.091ZM819.424 117.696L827.628 102.788L828.279 103.114L821.296 118.63L838.017 127.66L837.726 128.242L820.459 120.304L812.256 135.212L811.604 134.886L818.588 119.37L801.866 110.34L802.157 109.758L819.424 117.696Z" fill="white"/>
<g opacity="0.5">
<path d="M47.6356 479.39C48.2275 484.217 49.7202 486.643 53.0657 488.185C56.2053 489.626 56.6428 488.387 54.2495 486.138C49.3856 481.538 48.3047 478.429 51.4187 476.938C53.0401 476.18 65.0583 476.635 65.0583 476.635C66.2678 476.61 67.2458 477.595 67.1685 478.783C66.8338 483.964 65.1098 488.261 59.7827 488.286C58.393 488.286 57.9552 488.817 58.9074 489.322C63.9259 491.976 69.9993 485.91 70.1281 478.126C70.1795 474.613 63.334 473.552 49.0252 474.841C47.1723 475.043 47.1209 475.195 47.6356 479.39Z" fill="white"/>
<path d="M62.0473 469.508C62.9738 469.887 63.2311 470.216 63.334 471.151C63.5143 473.097 65.0583 473.047 65.0583 471.126V469.685H67.1943C70.4883 469.685 70.3598 468.194 67.04 467.663L65.2386 467.385L65.1356 465.818C65.0069 463.872 64.0291 463.114 62.9996 464.125C62.768 464.352 62.5621 465.06 62.5621 465.717C62.5621 466.779 62.459 466.88 61.4812 466.88C59.3708 466.88 59.7569 468.548 62.0473 469.508Z" fill="white"/>
<path d="M66.2165 459.449C61.7899 458.817 61.0178 459.55 64.3376 461.269C68.2237 463.291 73.8081 469.66 74.5544 475.523C75.481 482.751 69.4332 490.864 62.0731 492.204C50.8268 494.251 40.0181 482.372 43.6725 471.959C46.0401 465.211 51.9077 459.373 56.4628 460.384C59.1134 460.966 59.3193 459.55 57.2348 459.171C56.0767 458.969 54.3524 458.918 52.9371 459.171C39.838 461.395 34.1505 480.553 43.9298 489.55C54.6871 499.432 71.8009 495.363 77.9516 481.488C81.6573 473.147 75.0178 460.688 66.2165 459.449Z" fill="white"/>
<path d="M49.6687 469.331C50.9812 469.331 51.0841 469.407 51.0841 470.367C51.0841 472.894 53.0143 473.577 53.4262 471.176C53.7864 469.078 53.8635 468.977 55.2276 468.977C57.029 468.977 56.8231 467.865 54.9444 467.41C53.7349 467.107 53.6062 466.981 53.6062 465.894C53.6062 463.493 52.0106 462.406 51.1614 464.226C50.9297 464.731 50.7497 465.515 50.7497 465.995C50.7497 466.804 50.6725 466.854 49.36 466.652C46.5806 466.222 46.6835 469.331 49.6687 469.331Z" fill="white"/>
</g>
<g filter="url(#filter2_f_30_4)">
<path d="M1622.76 978C1622.76 1151.19 952.265 1679 617.475 1278.5C467.242 1098.78 462 1003.29 462 830.094C462 656.901 657.523 304 891.765 304C1126.01 304 1622.76 804.807 1622.76 978Z" fill="#503C3C"/>
<path d="M891.765 304.5C950.178 304.5 1025.04 335.734 1104.54 385.381C1184.01 435.015 1268.04 503.006 1344.76 576.414C1421.48 649.822 1490.87 728.635 1541.08 799.909C1566.18 835.546 1586.48 869.291 1600.51 899.524C1614.54 929.767 1622.26 956.457 1622.26 978C1622.26 999.508 1611.85 1026.6 1592.88 1056.8C1573.91 1086.98 1546.44 1120.21 1512.42 1153.98C1444.36 1221.53 1350.13 1291.19 1245.44 1342.94C1140.75 1394.68 1025.64 1428.49 915.81 1424.36C805.998 1420.24 701.457 1378.19 617.859 1278.18C542.769 1188.35 503.944 1119.61 483.88 1051.71C463.813 983.799 462.5 916.696 462.5 830.094C462.5 743.637 511.324 612.214 589.449 502.39C667.582 392.556 774.892 304.5 891.765 304.5Z" stroke="black"/>
</g>
</g>
<defs>
<filter id="filter0_f_30_4" x="-1019" y="-196" width="1861" height="1762" filterUnits="userSpaceOnUse" color-interpolation-filters="sRGB">
<feFlood flood-opacity="0" result="BackgroundImageFix"/>
<feBlend mode="normal" in="SourceGraphic" in2="BackgroundImageFix" result="shape"/>
<feGaussianBlur stdDeviation="250" result="effect1_foregroundBlur_30_4"/>
</filter>
<filter id="filter1_f_30_4" x="-38" y="-849" width="1769" height="1953" filterUnits="userSpaceOnUse" color-interpolation-filters="sRGB">
<feFlood flood-opacity="0" result="BackgroundImageFix"/>
<feBlend mode="normal" in="SourceGraphic" in2="BackgroundImageFix" result="shape"/>
<feGaussianBlur stdDeviation="250" result="effect1_foregroundBlur_30_4"/>
</filter>
<filter id="filter2_f_30_4" x="-38" y="-196" width="2160.76" height="2121.2" filterUnits="userSpaceOnUse" color-interpolation-filters="sRGB">
<feFlood flood-opacity="0" result="BackgroundImageFix"/>
<feBlend mode="normal" in="SourceGraphic" in2="BackgroundImageFix" result="shape"/>
<feGaussianBlur stdDeviation="250" result="effect1_foregroundBlur_30_4"/>
</filter>
<linearGradient id="paint0_linear_30_4" x1="462.5" y1="0" x2="462.5" y2="1209" gradientUnits="userSpaceOnUse">
<stop stop-color="#FFFADC"/>
<stop offset="1" stop-color="white"/>
</linearGradient>
<linearGradient id="paint1_linear_30_4" x1="711.686" y1="76" x2="711.686" y2="388.311" gradientUnits="userSpaceOnUse">
<stop stop-color="white" stop-opacity="0"/>
<stop offset="0.5" stop-color="white" stop-opacity="0.5"/>
<stop offset="1" stop-color="white" stop-opacity="0"/>
</linearGradient>
<linearGradient id="paint2_linear_30_4" x1="320.975" y1="31" x2="320.975" y2="432.678" gradientUnits="userSpaceOnUse">
<stop stop-color="white" stop-opacity="0"/>
<stop offset="0.5" stop-color="white" stop-opacity="0.5"/>
<stop offset="1" stop-color="white" stop-opacity="0"/>
</linearGradient>
<linearGradient id="paint3_linear_30_4" x1="866.095" y1="335" x2="866.095" y2="823.778" gradientUnits="userSpaceOnUse">
<stop stop-color="white" stop-opacity="0"/>
<stop offset="0.5" stop-color="white" stop-opacity="0.5"/>
<stop offset="1" stop-color="white" stop-opacity="0"/>
</linearGradient>
<clipPath id="clip0_30_4">
<rect width="925" height="1209" fill="white"/>
</clipPath>
<clipPath id="clip1_30_4">
<rect width="43.4339" height="74.6212" fill="white" transform="translate(879.9 250.861) rotate(126)"/>
</clipPath>
<clipPath id="clip2_30_4">
<rect width="39" height="39" fill="white" transform="translate(22 904)"/>
</clipPath>
</defs>
</svg>
